<svg xmlns="http://www.w3.org/2000/svg" xmlns:xlink="http://www.w3.org/1999/xlink" width="500" height="500" viewBox="0 0 375 375" version="1.2"><defs><symbol overflow="visible" id="a"><path d="M17.2695-11.9297c-6.2812 0-10.6758-4.082-10.6758-4.082L.629-6.5937S6.2813.9413 20.0937.9413c10.9883 0 17.8985-6.9062 17.8985-14.1289C37.9922-27 21.0352-27 21.0352-30.1406c0-.9414.9414-1.8867 2.5117-1.8867 4.3984 0 8.164 3.457 8.164 3.457l5.9649-9.4219s-5.6485-6.9062-16.9531-6.9062c-10.9883 0-17.8985 6.9062-17.8985 14.1289 0 13.8164 16.957 13.8164 16.957 16.953 0 .9454-.9414 1.8868-2.5117 1.8868zm0 0"/></symbol><symbol overflow="visible" id="b"><path d="M20.0938-43.957H3.7694V0h33.2813v-14.4414h-16.957zm0 0"/></symbol><symbol overflow="visible" id="c"><path d="M20.0938-43.957H3.7694V0h16.3242zm0 0"/></symbol><symbol overflow="visible" id="d"><path d="M20.0938-13.1875v-17.582h2.5117c4.711 0 7.5351 2.8242 7.5351 8.793 0 5.9648-2.8242 8.789-7.5351 8.789zm27.6289-8.789c0-13.504-8.4141-22.6094-25.1172-22.6094-10.047 0-18.836.6289-18.836.6289V0s8.789.629 18.836.629c16.703 0 25.1172-9.1056 25.1172-22.6056zm0 0"/></symbol><symbol overflow="visible" id="e"><path d="M20.0938-15.6992h16.328v-12.5586h-16.328v-3.1406h17.582V-43.957H3.7695V0h35.164v-12.5586H20.0938zm0 0"/></symbol><symbol overflow="visible" id="i"><path d="M15.0703-32.9688H2.8243V0h12.246zm0 0"/></symbol><symbol overflow="visible" id="j"><path d="M.9414-32.9688v10.832h8.9492V0h12.2461v-22.1367h8.9453v-10.832zm0 0"/></symbol><clipPath id="f"><path d="M281 137.1367h12V148h-12zm0 0"/></clipPath><clipPath id="g"><path d="M236.7734 141h100.5v10h-100.5zm0 0"/></clipPath><clipPath id="h"><path d="M279 216h16v21.6367h-16zm0 0"/></clipPath></defs><use xlink:href="#a" x="34.1438" y="203.6621" fill="#5bf"/><use xlink:href="#b" x="73.3907" y="203.6621" fill="#5bf"/><use xlink:href="#c" x="111.6957" y="203.6621" fill="#5bf"/><use xlink:href="#d" x="135.5579" y="203.6621" fill="#5bf"/><use xlink:href="#e" x="185.794" y="203.6621" fill="#5bf"/><path d="M239.6602 149.1758h94.7421v60.7187c0 .4336-.043.8672-.125 1.293a6.5578 6.5578 0 01-.3789 1.246 6.7525 6.7525 0 01-.6132 1.1485 6.9988 6.9988 0 01-.8243 1.004 6.609 6.609 0 01-1.0078.828c-.3633.2383-.746.4454-1.1484.6133a6.896 6.896 0 01-1.2422.375 6.5775 6.5775 0 01-1.2969.129H246.297c-.4336 0-.8672-.043-1.293-.129a6.8417 6.8417 0 01-1.246-.375c-.4024-.168-.7852-.375-1.1485-.6132a6.7733 6.7733 0 01-1.004-.8282 6.747 6.747 0 01-.8242-1.0039c-.2421-.3632-.4492-.746-.6132-1.1484a6.5578 6.5578 0 01-.379-1.2461 6.5385 6.5385 0 01-.1288-1.293zm0 0" fill="#09f"/><path d="M239.6602 149.1758h94.7421v4.543h-94.7421zm0 0" fill="#dfe8f4"/><g clip-path="url(#f)"><path d="M292.3398 142.4531c0 .3516-.0351.6953-.1015 1.039-.0703.34-.168.6759-.3047.9962a5.2246 5.2246 0 01-.4922.9219 5.2063 5.2063 0 01-.6601.8046 5.2063 5.2063 0 01-.8047.6602 5.1906 5.1906 0 01-.918.4922c-.3242.1328-.6563.2344-1 .3008a5.153 5.153 0 01-2.0742 0c-.3438-.0664-.6758-.168-1-.3008a5.1906 5.1906 0 01-.918-.4922 5.2063 5.2063 0 01-.8047-.6602 5.2064 5.2064 0 01-.6601-.8046 5.2246 5.2246 0 01-.4922-.922c-.1367-.3202-.2344-.6562-.3047-.996a5.4472 5.4472 0 01-.1016-1.039c0-.3477.0352-.6954.1016-1.0352.0703-.3438.168-.6758.3047-1a5.1906 5.1906 0 01.4922-.918c.1914-.293.414-.5586.6601-.8047.2461-.25.5156-.4687.8047-.664a5.7555 5.7555 0 01.918-.4922c.3242-.1328.6562-.2344 1-.3008.3437-.0703.6875-.1016 1.039-.1016.3477 0 .6914.0313 1.0352.1016.3437.0664.6758.168 1 .3008.3203.1367.6289.3007.918.4922.289.1953.5586.414.8046.664.2461.2461.4688.5117.6602.8047.1953.289.3594.5977.4922.918.1367.3242.2344.6562.3047 1 .0664.3398.1015.6875.1015 1.0351zm0 0" fill="#d9d9d9"/></g><g clip-path="url(#g)"><path d="M238.6563 141.8477h96.7304c.25 0 .4922.0468.7227.1406.2304.0976.4336.2344.6094.4101a1.879 1.879 0 01.4101.6133c.0938.2305.1406.4688.1445.7188v4.6054c-.0039.25-.0507.4922-.1445.7227a1.9042 1.9042 0 01-.4101.6094 1.7853 1.7853 0 01-.6094.4101c-.2305.0977-.4727.1446-.7227.1446h-96.7305c-.25 0-.4921-.047-.7226-.1446a1.7853 1.7853 0 01-.6094-.4101 1.9042 1.9042 0 01-.4101-.6094 1.9047 1.9047 0 01-.1407-.7227v-4.6054c0-.25.047-.4883.1407-.7188a1.879 1.879 0 01.4101-.6133 1.9042 1.9042 0 01.6094-.4101 1.9047 1.9047 0 01.7226-.1406zm0 0" fill="#09f"/></g><g clip-path="url(#h)"><path d="M279.6719 230.2852c0 .4882.0469.9726.1445 1.4492.0938.4765.2383.9414.4258 1.3906.1875.4492.418.875.6914 1.2773.2734.4024.582.7774.9297 1.1172a7.0486 7.0486 0 001.1289.914c.4062.2657.836.4923 1.289.672.4532.1836.918.3164 1.3946.4062a7.2424 7.2424 0 001.4492.125 7.361 7.361 0 001.4023-.1719 7.0827 7.0827 0 001.3438-.4296 7.1816 7.1816 0 001.2383-.6758c.3906-.2656.7539-.5625 1.086-.8985.3358-.332.6327-.6953.8983-1.0859.2657-.3945.4922-.8047.6758-1.2383a7.386 7.386 0 00.4336-1.3437c.0977-.461.1563-.9297.168-1.4024a7.4203 7.4203 0 00-.2422-1.9648c-.1719-.6446-.4219-1.254-.7578-1.8281-.336-.5743-.7422-1.0977-1.2188-1.5625-.4765-.4649-1.0078-.8555-1.5937-1.1758-.2617-.1446-.4649-.3477-.6172-.6094-.1484-.2578-.2226-.5352-.2187-.836v-5.8827h-5.4024v5.8828c.004.3007-.0703.582-.2265.8437-.1524.2578-.3633.461-.6329.6016-.5742.3164-1.0937.707-1.5664 1.164a7.2758 7.2758 0 00-1.203 1.5352c-.336.5625-.586 1.164-.7618 1.7969a7.3157 7.3157 0 00-.2578 1.9297zm7.3515 1.9687a1.98 1.98 0 01-.7539-.1484c-.2422-.1016-.457-.2422-.6406-.4258a2.019 2.019 0 01-.4258-.6406c-.1015-.2422-.1484-.4922-.1484-.754 0-.2578.0469-.5117.1484-.75.1016-.2421.2422-.457.4258-.6406a1.9159 1.9159 0 01.6406-.4257c.2383-.1016.4922-.1485.754-.1485.2577 0 .5117.0469.75.1484.2421.0977.457.2422.6406.4258.1836.1836.3242.3985.4257.6407.1016.2382.1485.4921.1485.75 0 .2617-.0469.5117-.1485.7539a2.019 2.019 0 01-.4257.6406c-.1836.1836-.3985.3242-.6407.4258a1.9751 1.9751 0 01-.75.1484zm0 0" fill="#d9d9d9"/></g><path d="M304.7773 166.2617c-.5312 0-1.0586.0235-1.5859.0742a17.9972 17.9972 0 00-1.5742.2344 17.3824 17.3824 0 00-1.539.3867c-.5079.1524-1.004.332-1.4962.5352a16.023 16.023 0 00-1.4336.6797c-.4687.25-.9218.5195-1.3632.8164-.4414.293-.8672.6094-1.2774.9453-.4101.336-.8008.6914-1.1758 1.0664s-.7304.7656-1.0664 1.1758c-.336.4101-.6523.836-.9453 1.2773a15.5214 15.5214 0 00-.8164 1.3633c-.25.4649-.4766.9453-.6797 1.4336-.2031.4922-.3828.9883-.5351 1.496a17.382 17.382 0 00-.3868 1.5392 17.9969 17.9969 0 00-.2343 1.5742c-.0508.5273-.0743 1.0547-.0782 1.586.004.5273.0274 1.0585.0782 1.5858a17.693 17.693 0 00.2343 1.5704 17.465 17.465 0 00.3868 1.543c.1523.5038.332 1.0038.5351 1.4921.2031.4922.4297.9688.6797 1.4375.25.4688.5195.9219.8164 1.3633.293.4375.6094.8633.9453 1.2734a16.05 16.05 0 001.0664 1.1797c.375.3711.7657.7305 1.1758 1.0664.4102.336.836.6485 1.2774.9453.4414.293.8945.5665 1.3632.8165.4649.25.9454.4765 1.4336.6796.4922.2032.9883.379 1.4961.5352a16.0995 16.0995 0 001.539.3828 15.4558 15.4558 0 001.5743.2344 16.5172 16.5172 0 001.586.0781c.5273 0 1.0585-.0273 1.5859-.0781a15.221 15.221 0 001.5703-.2344 16.1763 16.1763 0 001.543-.3828c.5039-.1563 1.0039-.332 1.4921-.5352a16.0954 16.0954 0 001.4375-.6797c.4688-.25.922-.5234 1.3633-.8164.4375-.2968.8633-.6093 1.2735-.9453.4101-.336.8047-.6953 1.1797-1.0664.371-.375.7265-.7695 1.0664-1.1797.3359-.4101.6484-.832.9453-1.2734.293-.4414.5664-.8945.8164-1.3633.25-.4687.4765-.9453.6797-1.4375.203-.4883.3789-.9883.5351-1.4922a16.1765 16.1765 0 00.3828-1.543c.1055-.5195.1836-1.043.2344-1.5702a16.5794 16.5794 0 00.0781-1.586h-16.1836zm0 0" fill="#09f"/><path d="M304.7773 164.3555v18.1718h18.172c.2343.004.4609-.043.6757-.1406.2148-.0937.4023-.2265.5586-.4023a1.6542 1.6542 0 00.3476-.5938c.0704-.2226.0977-.4492.0743-.6836a20.0156 20.0156 0 00-.6094-3.3945 19.959 19.959 0 00-1.1836-3.2383c-.4922-1.043-1.0664-2.039-1.7266-2.9804-.664-.9454-1.4023-1.8282-2.2187-2.6446-.8125-.8164-1.6953-1.5547-2.6367-2.2187-.9453-.6602-1.9375-1.2383-2.9844-1.7305a20.1669 20.1669 0 00-3.2344-1.1875c-1.1133-.3008-2.2422-.5078-3.3945-.6133-.2344-.0234-.461.004-.6875.0742a1.7044 1.7044 0 00-.5977.3477 1.5964 1.5964 0 00-.4062.5586c-.0977.2148-.1485.4375-.1485.6758zm0 0M253.961 170.0703h27.8906v2.2617h-27.8907zm0 0M253.961 176.3516h27.8906v2.2617h-27.8907zm0 0M253.961 182.6328h27.8906v2.2617h-27.8907zm0 0M253.961 188.914h13.9452v2.2618H253.961zm0 0" fill="#09f"/><use xlink:href="#i" x="262.1687" y="198.7563" fill="#fff"/><use xlink:href="#j" x="280.0654" y="198.7563" fill="#fff"/></svg>