<svg xmlns="http://www.w3.org/2000/svg" xmlns:xlink="http://www.w3.org/1999/xlink" width="500" height="500" viewBox="0 0 375 375" version="1.2"><defs><clipPath id="a"><path d="M169 39.711h32V71h-32zm0 0"/></clipPath><clipPath id="b"><path d="M37.5 53H333v26H37.5zm0 0"/></clipPath><clipPath id="c"><path d="M163 273h44v62.211h-44zm0 0"/></clipPath><symbol overflow="visible" id="d"><path d="M44.2227-96.7422H8.293V0h35.9297zm0 0"/></symbol><symbol overflow="visible" id="e"><path d="M2.7656-96.7422v31.789h26.2578V0h35.9297v-64.9531h26.2617v-31.789zm0 0"/></symbol></defs><path d="M45.996 75.1094h278.5704v178.5312c0 .6367-.0312 1.2735-.0937 1.9102a19.2552 19.2552 0 01-.2813 1.8945c-.125.629-.2812 1.2461-.4648 1.8594a21.0096 21.0096 0 01-.6446 1.8008 20.0838 20.0838 0 01-.8203 1.7343 19.389 19.389 0 01-.9844 1.6407 19.8272 19.8272 0 01-1.1406 1.539c-.4062.4922-.836.9688-1.2851 1.418-.4532.4531-.9258.8828-1.422 1.2852-.4921.4062-1.0038.789-1.535 1.1445a22.5756 22.5756 0 01-1.6446.9844 18.8855 18.8855 0 01-1.7305.8164c-.5898.246-1.1914.461-1.8047.6445a17.8924 17.8924 0 01-1.8554.4648c-.629.125-1.2617.2188-1.8946.2813a19.5616 19.5616 0 01-1.914.0937H65.5118c-.6407 0-1.2774-.0312-1.9141-.0937a19.4304 19.4304 0 01-1.8946-.2813 17.8924 17.8924 0 01-1.8554-.4648 18.3536 18.3536 0 01-1.8047-.6445 18.8855 18.8855 0 01-1.7305-.8164 21.0227 21.0227 0 01-1.6445-.9844c-.5313-.3555-1.043-.7383-1.539-1.1445a19.1282 19.1282 0 01-1.418-1.2852c-.4532-.4492-.879-.9258-1.2852-1.418a19.8272 19.8272 0 01-1.1406-1.539 19.389 19.389 0 01-.9844-1.6407 20.0838 20.0838 0 01-.8203-1.7343c-.2422-.5899-.461-1.1914-.6446-1.8008-.1836-.6133-.3398-1.2305-.4648-1.8594a19.2552 19.2552 0 01-.2813-1.8945 19.5417 19.5417 0 01-.0937-1.9102zm0 0" fill="#09f"/><path d="M45.996 75.1094h278.5704v13.3554H45.9961zm0 0" fill="#dfe8f4"/><g clip-path="url(#a)"><path d="M200.8867 55.3477c0 1.0234-.1015 2.043-.3008 3.0507a15.4888 15.4888 0 01-.8906 2.9336c-.3906.9453-.875 1.8477-1.4453 2.7032a15.8909 15.8909 0 01-1.9414 2.3671 15.517 15.517 0 01-2.3711 1.9454 15.7584 15.7584 0 01-2.7031 1.4453c-.9492.3945-1.9258.6875-2.9336.8906a15.6869 15.6869 0 01-3.0508.3008c-1.0273 0-2.043-.1016-3.0508-.3008-1.0078-.2031-1.9844-.4961-2.9336-.8906a15.7584 15.7584 0 01-2.7031-1.4453 15.517 15.517 0 01-2.371-1.9454 15.8909 15.8909 0 01-1.9415-2.3671c-.5703-.8555-1.0547-1.7579-1.4453-2.7032a15.4888 15.4888 0 01-.8906-2.9336 15.7168 15.7168 0 01-.3008-3.0507c0-1.0274.1015-2.047.3008-3.0508a15.403 15.403 0 01.8906-2.9336 15.353 15.353 0 011.4453-2.7031 15.7257 15.7257 0 011.9414-2.3711 15.517 15.517 0 012.3711-1.9453 15.7585 15.7585 0 012.7031-1.4454 15.9864 15.9864 0 012.9336-.8906 15.683 15.683 0 013.0508-.2969c1.0273 0 2.043.0977 3.0508.297 1.0078.203 1.9844.5 2.9336.8905.9492.3946 1.8476.875 2.7031 1.4453a15.517 15.517 0 012.371 1.9454 15.7257 15.7257 0 011.9415 2.371 15.353 15.353 0 011.4453 2.7032 15.403 15.403 0 01.8906 2.9336 15.657 15.657 0 01.3008 3.0508zm0 0" fill="#d9d9d9"/></g><g clip-path="url(#b)"><path d="M43.039 53.5625h284.422c.3632 0 .7226.0352 1.078.1055a5.3216 5.3216 0 011.0391.3164c.336.1367.6563.3086.961.5117.3007.1992.582.4297.8398.6875.254.2578.4844.539.6875.8398.2031.3008.3711.6211.5117.957.1406.336.2461.6837.3164 1.0391.0703.3594.1055.7188.1055 1.082v13.543c0 .3633-.0352.7266-.1055 1.082a5.4042 5.4042 0 01-.3164 1.0391c-.1406.336-.3086.6563-.5117.957-.2031.3047-.4336.582-.6875.8399a5.6862 5.6862 0 01-.8398.6914 5.962 5.962 0 01-.961.5117c-.336.1367-.6797.2422-1.039.3125-.3555.0703-.7149.1094-1.0782.1094H43.0391c-.3633 0-.7227-.039-1.0782-.1094-.3593-.0703-.703-.1758-1.039-.3125a5.962 5.962 0 01-.961-.5117 5.6862 5.6862 0 01-.8398-.6914c-.254-.2578-.4844-.5352-.6875-.8398-.2031-.3008-.3711-.6211-.5117-.957a5.4042 5.4042 0 01-.3164-1.0391 5.5826 5.5826 0 01-.1055-1.082v-13.543c0-.3633.0352-.7227.1055-1.082a5.4042 5.4042 0 01.3164-1.0391c.1406-.336.3086-.6563.5117-.957a5.916 5.916 0 01.6875-.84 5.4252 5.4252 0 01.8398-.6874c.3047-.2031.625-.375.961-.5117a5.3216 5.3216 0 011.039-.3164 5.5428 5.5428 0 011.0782-.1055zm0 0" fill="#09f"/></g><g clip-path="url(#c)"><path d="M163.6406 313.6016a21.6204 21.6204 0 00.4219 4.254c.1406.699.3164 1.3905.5273 2.074.207.6837.4493 1.3517.7266 2.0118.2734.6602.582 1.3047.9219 1.9297a21.347 21.347 0 001.1094 1.832 21.7216 21.7216 0 001.2851 1.711 21.231 21.231 0 001.4453 1.5742c.5078.5039 1.043.9765 1.5977 1.4258.5547.4492 1.1328.871 1.7304 1.2617.5977.3906 1.211.7539 1.8438 1.082a20.836 20.836 0 001.9453.8945c.6602.2657 1.336.5 2.0195.6993a22.6968 22.6968 0 002.082.496c.7032.129 1.4102.2266 2.1212.2852.711.0625 1.4257.086 2.1406.0781a22.9522 22.9522 0 002.0703-.1523 21.3215 21.3215 0 002.0469-.3477 22.2969 22.2969 0 002.0039-.539 21.546 21.546 0 001.9453-.7266c.6367-.2734 1.2617-.5742 1.8672-.9062.6094-.332 1.1992-.6954 1.7734-1.082a22.5 22.5 0 001.664-1.2462 23.5313 23.5313 0 001.5352-1.3945 22.6232 22.6232 0 001.3946-1.539 20.6699 20.6699 0 001.246-1.6602 21.067 21.067 0 001.0821-1.7735c.332-.6093.6328-1.2304.9063-1.8671a22.8236 22.8236 0 00.7304-1.9454c.211-.6601.3906-1.328.539-2.0039.1446-.6757.2618-1.3593.3438-2.0468.082-.6875.1328-1.379.1524-2.0703a22.009 22.009 0 00-.1602-2.9141 21.7236 21.7236 0 00-.5547-2.8672c-.246-.9414-.5586-1.8633-.9297-2.7617a21.9732 21.9732 0 00-1.2968-2.6133 21.647 21.647 0 00-1.6368-2.414c-.6015-.7696-1.25-1.4962-1.9492-2.1758a21.8458 21.8458 0 00-2.2226-1.8907c-.7813-.578-1.6016-1.1015-2.457-1.5742-.7657-.4258-1.3712-1.0234-1.8126-1.7851-.4414-.7618-.6601-1.582-.6484-2.461v-17.3008h-15.8828v17.3008c.0117.8906-.211 1.7149-.664 2.4805-.4532.7617-1.0743 1.3516-1.8594 1.7656a22.3673 22.3673 0 00-2.418 1.5586 22.1195 22.1195 0 00-2.1875 1.8633 21.2704 21.2704 0 00-1.9258 2.1406 22.2862 22.2862 0 00-1.621 2.3711c-.4845.8281-.918 1.6836-1.2892 2.5703a21.444 21.444 0 00-.9414 2.7149 22.2007 22.2007 0 00-.5703 2.8164c-.125.9492-.1914 1.9062-.1914 2.8672zm21.6094 5.7851a5.76 5.76 0 01-1.129-.1094 5.6195 5.6195 0 01-1.0858-.332 5.7024 5.7024 0 01-1-.5312 5.766 5.766 0 01-.879-.7227 5.7517 5.7517 0 01-.7187-.875c-.211-.3164-.3867-.6484-.5352-1a5.8935 5.8935 0 01-.328-1.086 5.789 5.789 0 01-.1095-1.1288 5.76 5.76 0 01.1094-1.129 5.804 5.804 0 01.3281-1.0859c.1485-.3515.3243-.6836.5352-1 .211-.3164.4531-.6094.7188-.8789a5.7409 5.7409 0 01.8789-.7187c.3164-.211.6484-.3907 1-.5352a5.8936 5.8936 0 011.0859-.3281c.371-.0742.75-.1133 1.1289-.1133.379 0 .7578.039 1.129.1133.371.0742.7343.1836 1.0858.3281.3516.1445.6836.3242 1 .5352.3165.2109.6094.4492.879.7187.2656.2695.5078.5625.7187.879.211.3163.3867.6484.5352 1 .1445.3515.2539.7109.328 1.0859a5.76 5.76 0 01.1095 1.1289c0 .3789-.0352.7539-.1094 1.1289a5.8935 5.8935 0 01-.3281 1.086c-.1485.3515-.3243.6835-.5352 1a5.7517 5.7517 0 01-.7188.875 5.766 5.766 0 01-.8789.7226 5.7024 5.7024 0 01-1 .5312 5.6195 5.6195 0 01-1.0859.332 5.76 5.76 0 01-1.1289.1094zm0 0" fill="#d9d9d9"/></g><path d="M237.4531 125.3438a47.676 47.676 0 00-4.664.2265 47.1549 47.1549 0 00-4.6172.6875c-1.5313.3047-3.039.6797-4.5313 1.1328a47.5175 47.5175 0 00-4.3984 1.5742 48.3316 48.3316 0 00-4.2188 1.9961 47.2632 47.2632 0 00-4.0078 2.4024 47.4846 47.4846 0 00-3.75 2.7812 47.8286 47.8286 0 00-3.461 3.1368c-1.1015 1.1015-2.1483 2.2539-3.1366 3.4609a47.484 47.484 0 00-2.7813 3.75c-.8672 1.2969-1.664 2.6328-2.4023 4.0039-.7344 1.375-1.3985 2.7851-1.9961 4.2226-.5938 1.4415-1.1211 2.9063-1.5703 4.3985-.4532 1.4922-.832 3-1.1368 4.5312a47.1432 47.1432 0 00-.6835 4.6172 47.6796 47.6796 0 00-.2305 4.664c0 1.5587.0781 3.1134.2305 4.6642a47.2213 47.2213 0 00.6835 4.621 47.7227 47.7227 0 001.1368 4.5313c.4492 1.4883.9765 2.957 1.5703 4.3945a47.874 47.874 0 001.996 4.2227c.7384 1.375 1.5352 2.711 2.4024 4.0039a48.2814 48.2814 0 002.7813 3.7539c.9882 1.2031 2.0351 2.3555 3.1367 3.461 1.1016 1.1015 2.2578 2.1445 3.461 3.1327 1.203.9922 2.453 1.918 3.75 2.7852a48.2717 48.2717 0 004.0077 2.3984c1.375.7344 2.7813 1.4024 4.2188 1.9961a47.5173 47.5173 0 004.3984 1.5743c1.4922.453 3 .832 4.5313 1.1367 1.5273.3007 3.0664.5312 4.6172.6836a47.6796 47.6796 0 004.664.2304c1.5586 0 3.1133-.078 4.668-.2304 1.5508-.1524 3.0898-.3828 4.6172-.6836a47.7226 47.7226 0 004.5312-1.1368 47.0385 47.0385 0 004.3946-1.5742c1.4414-.5937 2.8476-1.2617 4.2226-1.996a48.2716 48.2716 0 004.0078-2.3985 48.2645 48.2645 0 003.75-2.7852c1.2032-.9882 2.3594-2.0312 3.461-3.1328 1.1015-1.1054 2.1484-2.2578 3.1367-3.461a48.2816 48.2816 0 002.7812-3.7538 47.5693 47.5693 0 002.3985-4.004c.7383-1.375 1.4023-2.7812 2-4.2226.5937-1.4375 1.121-2.9062 1.5703-4.3945a47.7227 47.7227 0 001.1367-4.5313 47.2213 47.2213 0 00.6836-4.621 47.6796 47.6796 0 00.2305-4.6641H237.453zm0 0" fill="#09f"/><path d="M237.4531 119.7422v53.4336h53.4375a4.632 4.632 0 001.0117-.1016c.336-.0664.6602-.1719.9727-.3086a4.8166 4.8166 0 00.8828-.5039 4.6432 4.6432 0 00.7578-.6797c.2305-.25.4297-.5273.6016-.8203a4.7335 4.7335 0 00.418-.9297 4.5436 4.5436 0 00.2148-.9922c.039-.3398.039-.6796.004-1.0195a59.0467 59.0467 0 00-.6759-5.0273 59.574 59.574 0 00-1.1133-4.9493 58.388 58.388 0 00-1.5351-4.8359c-.582-1.5898-1.2305-3.1523-1.9492-4.6836a59.1666 59.1666 0 00-2.3477-4.496 58.262 58.262 0 00-2.7305-4.2774c-.9687-1.3867-2-2.7266-3.0859-4.0235-1.0898-1.2968-2.2305-2.5468-3.4258-3.7421-1.1992-1.1993-2.4453-2.3399-3.7383-3.4297a59.057 59.057 0 00-4.0195-3.0938c-1.3867-.9726-2.8125-1.8867-4.2773-2.7344-1.461-.8515-2.961-1.6328-4.4922-2.3554-1.5313-.7188-3.0938-1.3672-4.6836-1.9531a59.3803 59.3803 0 00-4.832-1.543 59.222 59.222 0 00-4.9493-1.1133c-1.664-.3008-3.3398-.5313-5.0273-.6836a4.6825 4.6825 0 00-1.0195.004 4.563 4.563 0 00-1 .2148 4.7523 4.7523 0 00-.9336.414c-.297.1719-.5743.3711-.8282.6016a4.8786 4.8786 0 00-.6875.7578c-.1992.2773-.371.5703-.5117.8828-.1406.3125-.25.6367-.3203.9688a4.9756 4.9756 0 00-.1172 1.0195zm0 0M88.043 136.5469h82v6.6484h-82zm0 0M88.043 155.0156h82v6.6485h-82zm0 0M88.043 173.4844h82v6.6484h-82zm0 0M88.043 191.9531h41v6.6485h-41zm0 0" fill="#09f"/><use xlink:href="#d" x="112.0265" y="220.5309" fill="#fff"/><use xlink:href="#e" x="164.5431" y="220.5309" fill="#fff"/></svg>